<svg height="50" viewBox="0 0 201 50" width="201" xmlns="http://www.w3.org/2000/svg"><g fill="none" transform="translate(3 5)"><path d="m0 16.9407826c0-1.6214 1.786931-2.6068 3.158131-1.7415l12.96435 8.1809c.5978.3772.9603 1.0346.9603 1.7414v13.1428c0 1.6249-1.7939 2.6097-3.1647 1.7373l-12.96441-8.2501c-.59398-.378-.953671-1.0332-.953671-1.7372z" fill="#ff5f85"/><path d="m36.617181 16.9407826c0-1.6214-1.7869-2.6068-3.1581-1.7415l-12.9644 8.1809c-.5978.3772-.9603 1.0346-.9603 1.7414v13.1428c0 1.6249 1.7939 2.6097 3.1648 1.7373l12.9643-8.2501c.594-.378.9537-1.0332.9537-1.7372z" fill="#ffc147"/><path d="m32.451381 8.40256257-12.5801-7.9899c-.866-.54999-1.9717-.55023-2.8379-.00064l-12.55424 7.96557c-1.65012 1.04699-1.63612 3.45959003.02605 4.48739003l12.72909 7.8707c.8616.5327 1.9516.5272 2.8076-.0143l12.4053-7.8464c1.6413-1.0381 1.6435-3.43130003.0042-4.47242003z" fill="#4457ff"/></g></svg>