<?xml version="1.0" encoding="UTF-8"?>
<svg width="201px" height="50px" viewBox="0 0 201 50" version="1.1" xmlns="http://www.w3.org/2000/svg" xmlns:xlink="http://www.w3.org/1999/xlink">
    <title>Artboard</title>
    <g id="Artboard" stroke="none" stroke-width="1" fill="none" fill-rule="evenodd">
        <g id="6710f39b9f4b928f80ad9d28_logo-saasplex-x-template" transform="translate(3, 5)" fill-rule="nonzero">
            <path d="M0,16.9407826 C0,15.3193826 1.786931,14.3339826 3.158131,15.1992826 L16.122481,23.3801826 C16.720281,23.7573826 17.082781,24.4147826 17.082781,25.1215826 L17.082781,38.2643826 C17.082781,39.8892826 15.288881,40.8740826 13.918081,40.0016826 L0.953671,31.7515826 C0.359691,31.3735826 0,30.7183826 0,30.0143826 L0,16.9407826 Z" id="Path" fill="#FF5F85"></path>
            <path d="M36.617181,16.9407826 C36.617181,15.3193826 34.830281,14.3339826 33.459081,15.1992826 L20.494681,23.3801826 C19.896881,23.7573826 19.534381,24.4147826 19.534381,25.1215826 L19.534381,38.2643826 C19.534381,39.8892826 21.328281,40.8740826 22.699181,40.0016826 L35.663481,31.7515826 C36.257481,31.3735826 36.617181,30.7183826 36.617181,30.0143826 L36.617181,16.9407826 Z" id="Path" fill="#FFC147"></path>
            <path d="M32.451381,8.40256257 L19.871281,0.412662566 C19.005281,-0.137327434 17.899581,-0.137567434 17.033381,0.412022566 L4.479141,8.37759257 C2.829021,9.42458257 2.843021,11.8371826 4.505191,12.8649826 L17.234281,20.7356826 C18.095881,21.2683826 19.185881,21.2628826 20.041881,20.7213826 L32.447181,12.8749826 C34.088481,11.8368826 34.090681,9.44368257 32.451381,8.40256257 Z" id="Path" fill="#4457FF"></path>
        </g>
        <text id="SuperHelo" font-family="Helvetica-Bold, Helvetica" font-size="30" font-weight="bold" letter-spacing="-0.4255714" fill="#0B0A33">
            <tspan x="50.4004229" y="36">SuperHelo</tspan>
        </text>
    </g>
</svg>